<svg width="100" height="100" viewBox="0 0 100 100" fill="none" xmlns="http://www.w3.org/2000/svg">
<rect width="100" height="100" fill="#292D38"/>
<path d="M60.1585 30.4002C60.6684 28.2758 59.3182 27.2727 57.7273 27.2727H51.5909C50.4546 27.2727 49.8213 28.0173 49.5637 29.0909L39.7557 69.9573C39.3871 71.4934 40.4546 72.7272 41.8182 72.7272H48.1819C49.3182 72.7272 50.1637 72.0454 50.3934 71.0882L60.1585 30.4002Z" fill="#315BE1"/>
<path d="M77.1193 28.8636C76.5581 28.3261 75.2462 27.6846 73.9908 28.8905L70.0114 32.9719C69.8079 33.1806 69.5894 33.3802 69.436 33.6281C69.1005 34.1705 68.705 35.2729 69.7056 36.4112L81.5082 48.5165C82.5724 49.7568 82.0181 50.9148 81.5082 51.4834L69.6914 63.6032C68.9366 64.3773 68.7839 65.7689 69.6914 66.6997L73.9864 71.1048C74.8044 71.9438 76.233 72.0454 77.15 71.1048L96.2034 51.5629C97.1611 50.5806 96.941 49.1934 96.2034 48.437L77.1193 28.8636Z" fill="#315BE1"/>
<path d="M22.9043 28.8412C23.4656 28.3037 24.7775 27.6622 26.0329 28.8682L30.0123 32.9496C30.2158 33.1583 30.4343 33.3579 30.5876 33.6058C30.9232 34.1482 31.3187 35.2505 30.3181 36.3889L18.5155 48.4941C17.4513 49.7344 18.0055 50.8925 18.5155 51.461L30.3323 63.5809C31.0871 64.355 31.2398 65.7466 30.3323 66.6773L26.0373 71.0825C25.2193 71.9215 23.7907 72.023 22.8736 71.0825L3.82026 51.5405C2.86258 50.5583 3.08269 49.1711 3.82026 48.4146L22.9043 28.8412Z" fill="#315BE1"/>
</svg>
